<?xml version="1.0" standalone="no"?>
<!DOCTYPE svg PUBLIC "-//W3C//DTD SVG 20010904//EN"
 "http://www.w3.org/TR/2001/REC-SVG-20010904/DTD/svg10.dtd">
<svg version="1.0" xmlns="http://www.w3.org/2000/svg"
 width="64.000000pt" height="64.000000pt" viewBox="0 0 64.000000 64.000000"
 preserveAspectRatio="xMidYMid meet">

<g transform="translate(0.000000,64.000000) scale(0.100000,-0.100000)"
fill="#000000" stroke="none">
<path d="M157 633 c-4 -3 -7 -22 -7 -42 0 -20 -7 -45 -15 -55 -8 -11 -15 -30
-15 -43 0 -13 -17 -42 -40 -67 -22 -24 -40 -49 -40 -55 0 -7 9 -33 19 -59 24
-59 39 -197 18 -168 -7 10 -22 17 -33 14 -17 -3 -19 -12 -19 -78 l0 -75 109
-3 c66 -2 113 1 120 8 13 13 83 13 91 0 3 -6 50 -10 105 -10 93 0 101 2 115
23 8 13 18 46 21 73 4 27 13 61 20 76 18 35 18 72 -1 107 -12 24 -33 41 -50
41 -2 0 -5 -17 -7 -37 -2 -20 -9 -39 -17 -41 -16 -5 -12 18 15 90 l18 46 -42
46 c-24 26 -42 55 -42 69 0 13 -7 32 -15 43 -8 10 -15 36 -15 56 0 20 -5 40
-10 43 -6 4 -31 -5 -56 -19 -59 -33 -109 -33 -165 -1 -48 27 -52 28 -62 18z
m33 -65 c0 -5 -4 -8 -10 -8 -5 0 -10 10 -10 23 0 18 2 19 10 7 5 -8 10 -18 10
-22z m236 -5 c-11 -11 -17 4 -9 23 7 18 8 18 11 1 2 -10 1 -21 -2 -24z m4 -43
c0 -5 -2 -10 -4 -10 -3 0 -8 5 -11 10 -3 6 -1 10 4 10 6 0 11 -4 11 -10z
m-182 -103 c12 -13 24 -36 26 -53 2 -16 7 -37 11 -46 4 -11 3 -18 -4 -18 -6 0
-11 -6 -11 -12 0 -8 13 -13 30 -13 17 0 30 5 30 13 0 6 -5 12 -11 12 -7 0 -8
7 -4 18 4 9 9 30 11 46 4 33 40 76 62 76 8 0 29 -13 48 -30 18 -16 49 -32 69
-36 19 -3 35 -9 35 -12 0 -21 -45 -91 -65 -102 -14 -7 -25 -17 -25 -22 0 -12
24 -10 38 4 9 9 12 6 12 -14 0 -14 -3 -39 -6 -56 -5 -26 -9 -29 -24 -20 -36
23 -50 3 -50 -67 l0 -65 -30 0 -30 0 0 89 c0 50 -4 93 -10 96 -6 4 -10 -25
-10 -79 l0 -86 -40 0 -40 0 0 86 c0 54 -4 83 -10 79 -5 -3 -10 -46 -10 -96 l0
-89 -39 0 c-21 0 -44 6 -50 13 -19 23 -40 94 -47 159 -5 52 -4 61 7 51 15 -15
39 -17 39 -5 0 5 -11 15 -25 22 -22 12 -74 96 -64 104 2 1 22 8 45 14 22 6 51
23 64 37 29 31 50 32 78 2z"/>
<path d="M202 384 c2 -11 11 -20 22 -22 13 -3 17 1 14 14 -2 11 -11 20 -22 22
-13 3 -17 -1 -14 -14z"/>
<path d="M363 385 c-3 -9 -3 -18 0 -22 10 -10 37 6 37 22 0 20 -29 20 -37 0z"/>
</g>
</svg>
